<svg xmlns="http://www.w3.org/2000/svg" xmlns:xlink="http://www.w3.org/1999/xlink" width="500" zoomAndPan="magnify" viewBox="0 0 375 374.999991" height="500" preserveAspectRatio="xMidYMid meet" version="1.0"><defs><clipPath id="d36b0a9d2b"><path d="M 121.144531 109 L 253.894531 109 L 253.894531 266 L 121.144531 266 Z M 121.144531 109 " clip-rule="nonzero"/></clipPath><clipPath id="7e9719a7e7"><path d="M 149.101562 147 L 188 147 L 188 186 L 149.101562 186 Z M 149.101562 147 " clip-rule="nonzero"/></clipPath><clipPath id="6e179f4f7b"><path d="M 148.351562 152.101562 L 148.351562 218.398438 C 148.351562 221.710938 151.039062 224.398438 154.351562 224.398438 L 220.648438 224.398438 C 223.960938 224.398438 226.648438 221.710938 226.648438 218.398438 L 226.648438 152.101562 C 226.648438 148.789062 223.960938 146.101562 220.648438 146.101562 L 154.351562 146.101562 C 151.039062 146.101562 148.351562 148.789062 148.351562 152.101562 Z M 148.351562 152.101562 " clip-rule="nonzero"/></clipPath><clipPath id="ca174ce367"><path d="M 155.25 147 L 219.75 147 C 221.339844 147 222.867188 147.632812 223.992188 148.757812 C 225.117188 149.882812 225.75 151.410156 225.75 153 L 225.75 217.5 C 225.75 220.8125 223.0625 223.5 219.75 223.5 L 155.25 223.5 C 151.9375 223.5 149.25 220.8125 149.25 217.5 L 149.25 153 C 149.25 149.6875 151.9375 147 155.25 147 Z M 155.25 147 " clip-rule="nonzero"/></clipPath><clipPath id="fdf6e80fc5"><path d="M 187 147 L 226 147 L 226 186 L 187 186 Z M 187 147 " clip-rule="nonzero"/></clipPath><clipPath id="26128075ce"><path d="M 148.351562 152.101562 L 148.351562 218.398438 C 148.351562 221.710938 151.039062 224.398438 154.351562 224.398438 L 220.648438 224.398438 C 223.960938 224.398438 226.648438 221.710938 226.648438 218.398438 L 226.648438 152.101562 C 226.648438 148.789062 223.960938 146.101562 220.648438 146.101562 L 154.351562 146.101562 C 151.039062 146.101562 148.351562 148.789062 148.351562 152.101562 Z M 148.351562 152.101562 " clip-rule="nonzero"/></clipPath><clipPath id="133c5a46c8"><path d="M 155.25 147 L 219.75 147 C 221.339844 147 222.867188 147.632812 223.992188 148.757812 C 225.117188 149.882812 225.75 151.410156 225.75 153 L 225.75 217.5 C 225.75 220.8125 223.0625 223.5 219.75 223.5 L 155.25 223.5 C 151.9375 223.5 149.25 220.8125 149.25 217.5 L 149.25 153 C 149.25 149.6875 151.9375 147 155.25 147 Z M 155.25 147 " clip-rule="nonzero"/></clipPath><clipPath id="0c3ceb4660"><path d="M 149.101562 185 L 188 185 L 188 224 L 149.101562 224 Z M 149.101562 185 " clip-rule="nonzero"/></clipPath><clipPath id="eff3ca97a0"><path d="M 148.351562 152.101562 L 148.351562 218.398438 C 148.351562 221.710938 151.039062 224.398438 154.351562 224.398438 L 220.648438 224.398438 C 223.960938 224.398438 226.648438 221.710938 226.648438 218.398438 L 226.648438 152.101562 C 226.648438 148.789062 223.960938 146.101562 220.648438 146.101562 L 154.351562 146.101562 C 151.039062 146.101562 148.351562 148.789062 148.351562 152.101562 Z M 148.351562 152.101562 " clip-rule="nonzero"/></clipPath><clipPath id="3ad0967f6a"><path d="M 155.25 147 L 219.75 147 C 221.339844 147 222.867188 147.632812 223.992188 148.757812 C 225.117188 149.882812 225.75 151.410156 225.75 153 L 225.75 217.5 C 225.75 220.8125 223.0625 223.5 219.75 223.5 L 155.25 223.5 C 151.9375 223.5 149.25 220.8125 149.25 217.5 L 149.25 153 C 149.25 149.6875 151.9375 147 155.25 147 Z M 155.25 147 " clip-rule="nonzero"/></clipPath><clipPath id="c741cc7d0d"><path d="M 187 185 L 226 185 L 226 224 L 187 224 Z M 187 185 " clip-rule="nonzero"/></clipPath><clipPath id="52bc603f6d"><path d="M 148.351562 152.101562 L 148.351562 218.398438 C 148.351562 221.710938 151.039062 224.398438 154.351562 224.398438 L 220.648438 224.398438 C 223.960938 224.398438 226.648438 221.710938 226.648438 218.398438 L 226.648438 152.101562 C 226.648438 148.789062 223.960938 146.101562 220.648438 146.101562 L 154.351562 146.101562 C 151.039062 146.101562 148.351562 148.789062 148.351562 152.101562 Z M 148.351562 152.101562 " clip-rule="nonzero"/></clipPath><clipPath id="8b1cc8004e"><path d="M 155.25 147 L 219.75 147 C 221.339844 147 222.867188 147.632812 223.992188 148.757812 C 225.117188 149.882812 225.75 151.410156 225.75 153 L 225.75 217.5 C 225.75 220.8125 223.0625 223.5 219.75 223.5 L 155.25 223.5 C 151.9375 223.5 149.25 220.8125 149.25 217.5 L 149.25 153 C 149.25 149.6875 151.9375 147 155.25 147 Z M 155.25 147 " clip-rule="nonzero"/></clipPath><clipPath id="501e4781d8"><path d="M 149.101562 147 L 226 147 L 226 224 L 149.101562 224 Z M 149.101562 147 " clip-rule="nonzero"/></clipPath><clipPath id="bf13aeb183"><path d="M 148.351562 152.101562 L 148.351562 218.398438 C 148.351562 221.710938 151.039062 224.398438 154.351562 224.398438 L 220.648438 224.398438 C 223.960938 224.398438 226.648438 221.710938 226.648438 218.398438 L 226.648438 152.101562 C 226.648438 148.789062 223.960938 146.101562 220.648438 146.101562 L 154.351562 146.101562 C 151.039062 146.101562 148.351562 148.789062 148.351562 152.101562 Z M 148.351562 152.101562 " clip-rule="nonzero"/></clipPath><clipPath id="2de8659abe"><path d="M 155.25 147 L 219.75 147 C 221.339844 147 222.867188 147.632812 223.992188 148.757812 C 225.117188 149.882812 225.75 151.410156 225.75 153 L 225.75 217.5 C 225.75 220.8125 223.0625 223.5 219.75 223.5 L 155.25 223.5 C 151.9375 223.5 149.25 220.8125 149.25 217.5 L 149.25 153 C 149.25 149.6875 151.9375 147 155.25 147 Z M 155.25 147 " clip-rule="nonzero"/></clipPath><clipPath id="61c22b4e7e"><path d="M 160 158 L 176 158 L 176 174 L 160 174 Z M 160 158 " clip-rule="nonzero"/></clipPath><clipPath id="1826eac3eb"><path d="M 148.351562 152.101562 L 148.351562 218.398438 C 148.351562 221.710938 151.039062 224.398438 154.351562 224.398438 L 220.648438 224.398438 C 223.960938 224.398438 226.648438 221.710938 226.648438 218.398438 L 226.648438 152.101562 C 226.648438 148.789062 223.960938 146.101562 220.648438 146.101562 L 154.351562 146.101562 C 151.039062 146.101562 148.351562 148.789062 148.351562 152.101562 Z M 148.351562 152.101562 " clip-rule="nonzero"/></clipPath><clipPath id="ef281e94a7"><path d="M 155.25 147 L 219.75 147 C 221.339844 147 222.867188 147.632812 223.992188 148.757812 C 225.117188 149.882812 225.75 151.410156 225.75 153 L 225.75 217.5 C 225.75 220.8125 223.0625 223.5 219.75 223.5 L 155.25 223.5 C 151.9375 223.5 149.25 220.8125 149.25 217.5 L 149.25 153 C 149.25 149.6875 151.9375 147 155.25 147 Z M 155.25 147 " clip-rule="nonzero"/></clipPath><clipPath id="cbd19c88ed"><path d="M 167 152 L 170 152 L 170 157 L 167 157 Z M 167 152 " clip-rule="nonzero"/></clipPath><clipPath id="30dc4f02c8"><path d="M 148.351562 152.101562 L 148.351562 218.398438 C 148.351562 221.710938 151.039062 224.398438 154.351562 224.398438 L 220.648438 224.398438 C 223.960938 224.398438 226.648438 221.710938 226.648438 218.398438 L 226.648438 152.101562 C 226.648438 148.789062 223.960938 146.101562 220.648438 146.101562 L 154.351562 146.101562 C 151.039062 146.101562 148.351562 148.789062 148.351562 152.101562 Z M 148.351562 152.101562 " clip-rule="nonzero"/></clipPath><clipPath id="faee965864"><path d="M 155.25 147 L 219.75 147 C 221.339844 147 222.867188 147.632812 223.992188 148.757812 C 225.117188 149.882812 225.75 151.410156 225.75 153 L 225.75 217.5 C 225.75 220.8125 223.0625 223.5 219.75 223.5 L 155.25 223.5 C 151.9375 223.5 149.25 220.8125 149.25 217.5 L 149.25 153 C 149.25 149.6875 151.9375 147 155.25 147 Z M 155.25 147 " clip-rule="nonzero"/></clipPath><clipPath id="e7bd808e2c"><path d="M 167 175 L 170 175 L 170 180 L 167 180 Z M 167 175 " clip-rule="nonzero"/></clipPath><clipPath id="796574a390"><path d="M 148.351562 152.101562 L 148.351562 218.398438 C 148.351562 221.710938 151.039062 224.398438 154.351562 224.398438 L 220.648438 224.398438 C 223.960938 224.398438 226.648438 221.710938 226.648438 218.398438 L 226.648438 152.101562 C 226.648438 148.789062 223.960938 146.101562 220.648438 146.101562 L 154.351562 146.101562 C 151.039062 146.101562 148.351562 148.789062 148.351562 152.101562 Z M 148.351562 152.101562 " clip-rule="nonzero"/></clipPath><clipPath id="b62d324b46"><path d="M 155.25 147 L 219.75 147 C 221.339844 147 222.867188 147.632812 223.992188 148.757812 C 225.117188 149.882812 225.75 151.410156 225.75 153 L 225.75 217.5 C 225.75 220.8125 223.0625 223.5 219.75 223.5 L 155.25 223.5 C 151.9375 223.5 149.25 220.8125 149.25 217.5 L 149.25 153 C 149.25 149.6875 151.9375 147 155.25 147 Z M 155.25 147 " clip-rule="nonzero"/></clipPath><clipPath id="623e75183b"><path d="M 154 165 L 159 165 L 159 167 L 154 167 Z M 154 165 " clip-rule="nonzero"/></clipPath><clipPath id="a6ca64d4f2"><path d="M 148.351562 152.101562 L 148.351562 218.398438 C 148.351562 221.710938 151.039062 224.398438 154.351562 224.398438 L 220.648438 224.398438 C 223.960938 224.398438 226.648438 221.710938 226.648438 218.398438 L 226.648438 152.101562 C 226.648438 148.789062 223.960938 146.101562 220.648438 146.101562 L 154.351562 146.101562 C 151.039062 146.101562 148.351562 148.789062 148.351562 152.101562 Z M 148.351562 152.101562 " clip-rule="nonzero"/></clipPath><clipPath id="4ab1ac16cd"><path d="M 155.25 147 L 219.75 147 C 221.339844 147 222.867188 147.632812 223.992188 148.757812 C 225.117188 149.882812 225.75 151.410156 225.75 153 L 225.75 217.5 C 225.75 220.8125 223.0625 223.5 219.75 223.5 L 155.25 223.5 C 151.9375 223.5 149.25 220.8125 149.25 217.5 L 149.25 153 C 149.25 149.6875 151.9375 147 155.25 147 Z M 155.25 147 " clip-rule="nonzero"/></clipPath><clipPath id="154e028baf"><path d="M 177 165 L 183 165 L 183 167 L 177 167 Z M 177 165 " clip-rule="nonzero"/></clipPath><clipPath id="ef032a6d32"><path d="M 148.351562 152.101562 L 148.351562 218.398438 C 148.351562 221.710938 151.039062 224.398438 154.351562 224.398438 L 220.648438 224.398438 C 223.960938 224.398438 226.648438 221.710938 226.648438 218.398438 L 226.648438 152.101562 C 226.648438 148.789062 223.960938 146.101562 220.648438 146.101562 L 154.351562 146.101562 C 151.039062 146.101562 148.351562 148.789062 148.351562 152.101562 Z M 148.351562 152.101562 " clip-rule="nonzero"/></clipPath><clipPath id="d3839d757a"><path d="M 155.25 147 L 219.75 147 C 221.339844 147 222.867188 147.632812 223.992188 148.757812 C 225.117188 149.882812 225.75 151.410156 225.75 153 L 225.75 217.5 C 225.75 220.8125 223.0625 223.5 219.75 223.5 L 155.25 223.5 C 151.9375 223.5 149.25 220.8125 149.25 217.5 L 149.25 153 C 149.25 149.6875 151.9375 147 155.25 147 Z M 155.25 147 " clip-rule="nonzero"/></clipPath><clipPath id="6e5e17bf99"><path d="M 174 155 L 179 155 L 179 160 L 174 160 Z M 174 155 " clip-rule="nonzero"/></clipPath><clipPath id="4c68c07bd5"><path d="M 148.351562 152.101562 L 148.351562 218.398438 C 148.351562 221.710938 151.039062 224.398438 154.351562 224.398438 L 220.648438 224.398438 C 223.960938 224.398438 226.648438 221.710938 226.648438 218.398438 L 226.648438 152.101562 C 226.648438 148.789062 223.960938 146.101562 220.648438 146.101562 L 154.351562 146.101562 C 151.039062 146.101562 148.351562 148.789062 148.351562 152.101562 Z M 148.351562 152.101562 " clip-rule="nonzero"/></clipPath><clipPath id="04331127be"><path d="M 155.25 147 L 219.75 147 C 221.339844 147 222.867188 147.632812 223.992188 148.757812 C 225.117188 149.882812 225.75 151.410156 225.75 153 L 225.75 217.5 C 225.75 220.8125 223.0625 223.5 219.75 223.5 L 155.25 223.5 C 151.9375 223.5 149.25 220.8125 149.25 217.5 L 149.25 153 C 149.25 149.6875 151.9375 147 155.25 147 Z M 155.25 147 " clip-rule="nonzero"/></clipPath><clipPath id="5894b5884e"><path d="M 158 172 L 162 172 L 162 177 L 158 177 Z M 158 172 " clip-rule="nonzero"/></clipPath><clipPath id="d99188706a"><path d="M 148.351562 152.101562 L 148.351562 218.398438 C 148.351562 221.710938 151.039062 224.398438 154.351562 224.398438 L 220.648438 224.398438 C 223.960938 224.398438 226.648438 221.710938 226.648438 218.398438 L 226.648438 152.101562 C 226.648438 148.789062 223.960938 146.101562 220.648438 146.101562 L 154.351562 146.101562 C 151.039062 146.101562 148.351562 148.789062 148.351562 152.101562 Z M 148.351562 152.101562 " clip-rule="nonzero"/></clipPath><clipPath id="e734f1aab1"><path d="M 155.25 147 L 219.75 147 C 221.339844 147 222.867188 147.632812 223.992188 148.757812 C 225.117188 149.882812 225.75 151.410156 225.75 153 L 225.75 217.5 C 225.75 220.8125 223.0625 223.5 219.75 223.5 L 155.25 223.5 C 151.9375 223.5 149.25 220.8125 149.25 217.5 L 149.25 153 C 149.25 149.6875 151.9375 147 155.25 147 Z M 155.25 147 " clip-rule="nonzero"/></clipPath><clipPath id="fb61feecfe"><path d="M 158 155 L 162 155 L 162 160 L 158 160 Z M 158 155 " clip-rule="nonzero"/></clipPath><clipPath id="da7de78eb6"><path d="M 148.351562 152.101562 L 148.351562 218.398438 C 148.351562 221.710938 151.039062 224.398438 154.351562 224.398438 L 220.648438 224.398438 C 223.960938 224.398438 226.648438 221.710938 226.648438 218.398438 L 226.648438 152.101562 C 226.648438 148.789062 223.960938 146.101562 220.648438 146.101562 L 154.351562 146.101562 C 151.039062 146.101562 148.351562 148.789062 148.351562 152.101562 Z M 148.351562 152.101562 " clip-rule="nonzero"/></clipPath><clipPath id="a8d4d805a2"><path d="M 155.25 147 L 219.75 147 C 221.339844 147 222.867188 147.632812 223.992188 148.757812 C 225.117188 149.882812 225.75 151.410156 225.75 153 L 225.75 217.5 C 225.75 220.8125 223.0625 223.5 219.75 223.5 L 155.25 223.5 C 151.9375 223.5 149.25 220.8125 149.25 217.5 L 149.25 153 C 149.25 149.6875 151.9375 147 155.25 147 Z M 155.25 147 " clip-rule="nonzero"/></clipPath><clipPath id="647d0f3e53"><path d="M 174 172 L 179 172 L 179 177 L 174 177 Z M 174 172 " clip-rule="nonzero"/></clipPath><clipPath id="5bcf96282e"><path d="M 148.351562 152.101562 L 148.351562 218.398438 C 148.351562 221.710938 151.039062 224.398438 154.351562 224.398438 L 220.648438 224.398438 C 223.960938 224.398438 226.648438 221.710938 226.648438 218.398438 L 226.648438 152.101562 C 226.648438 148.789062 223.960938 146.101562 220.648438 146.101562 L 154.351562 146.101562 C 151.039062 146.101562 148.351562 148.789062 148.351562 152.101562 Z M 148.351562 152.101562 " clip-rule="nonzero"/></clipPath><clipPath id="58b7bbaad4"><path d="M 155.25 147 L 219.75 147 C 221.339844 147 222.867188 147.632812 223.992188 148.757812 C 225.117188 149.882812 225.75 151.410156 225.75 153 L 225.75 217.5 C 225.75 220.8125 223.0625 223.5 219.75 223.5 L 155.25 223.5 C 151.9375 223.5 149.25 220.8125 149.25 217.5 L 149.25 153 C 149.25 149.6875 151.9375 147 155.25 147 Z M 155.25 147 " clip-rule="nonzero"/></clipPath><clipPath id="b54eab0ced"><path d="M 199 154 L 214 154 L 214 178 L 199 178 Z M 199 154 " clip-rule="nonzero"/></clipPath><clipPath id="ebd1afb303"><path d="M 148.351562 152.101562 L 148.351562 218.398438 C 148.351562 221.710938 151.039062 224.398438 154.351562 224.398438 L 220.648438 224.398438 C 223.960938 224.398438 226.648438 221.710938 226.648438 218.398438 L 226.648438 152.101562 C 226.648438 148.789062 223.960938 146.101562 220.648438 146.101562 L 154.351562 146.101562 C 151.039062 146.101562 148.351562 148.789062 148.351562 152.101562 Z M 148.351562 152.101562 " clip-rule="nonzero"/></clipPath><clipPath id="6375190c01"><path d="M 155.25 147 L 219.75 147 C 221.339844 147 222.867188 147.632812 223.992188 148.757812 C 225.117188 149.882812 225.75 151.410156 225.75 153 L 225.75 217.5 C 225.75 220.8125 223.0625 223.5 219.75 223.5 L 155.25 223.5 C 151.9375 223.5 149.25 220.8125 149.25 217.5 L 149.25 153 C 149.25 149.6875 151.9375 147 155.25 147 Z M 155.25 147 " clip-rule="nonzero"/></clipPath><clipPath id="03bda87ed9"><path d="M 156 193 L 181 193 L 181 214 L 156 214 Z M 156 193 " clip-rule="nonzero"/></clipPath><clipPath id="ddb9ab2243"><path d="M 148.351562 152.101562 L 148.351562 218.398438 C 148.351562 221.710938 151.039062 224.398438 154.351562 224.398438 L 220.648438 224.398438 C 223.960938 224.398438 226.648438 221.710938 226.648438 218.398438 L 226.648438 152.101562 C 226.648438 148.789062 223.960938 146.101562 220.648438 146.101562 L 154.351562 146.101562 C 151.039062 146.101562 148.351562 148.789062 148.351562 152.101562 Z M 148.351562 152.101562 " clip-rule="nonzero"/></clipPath><clipPath id="dda235b842"><path d="M 155.25 147 L 219.75 147 C 221.339844 147 222.867188 147.632812 223.992188 148.757812 C 225.117188 149.882812 225.75 151.410156 225.75 153 L 225.75 217.5 C 225.75 220.8125 223.0625 223.5 219.75 223.5 L 155.25 223.5 C 151.9375 223.5 149.25 220.8125 149.25 217.5 L 149.25 153 C 149.25 149.6875 151.9375 147 155.25 147 Z M 155.25 147 " clip-rule="nonzero"/></clipPath><clipPath id="27d991d3af"><path d="M 198 206 L 215 206 L 215 216 L 198 216 Z M 198 206 " clip-rule="nonzero"/></clipPath><clipPath id="5f4a00d560"><path d="M 148.351562 152.101562 L 148.351562 218.398438 C 148.351562 221.710938 151.039062 224.398438 154.351562 224.398438 L 220.648438 224.398438 C 223.960938 224.398438 226.648438 221.710938 226.648438 218.398438 L 226.648438 152.101562 C 226.648438 148.789062 223.960938 146.101562 220.648438 146.101562 L 154.351562 146.101562 C 151.039062 146.101562 148.351562 148.789062 148.351562 152.101562 Z M 148.351562 152.101562 " clip-rule="nonzero"/></clipPath><clipPath id="84a111f90e"><path d="M 155.25 147 L 219.75 147 C 221.339844 147 222.867188 147.632812 223.992188 148.757812 C 225.117188 149.882812 225.75 151.410156 225.75 153 L 225.75 217.5 C 225.75 220.8125 223.0625 223.5 219.75 223.5 L 155.25 223.5 C 151.9375 223.5 149.25 220.8125 149.25 217.5 L 149.25 153 C 149.25 149.6875 151.9375 147 155.25 147 Z M 155.25 147 " clip-rule="nonzero"/></clipPath><clipPath id="1bc39fd290"><path d="M 194 196 L 219 196 L 219 206 L 194 206 Z M 194 196 " clip-rule="nonzero"/></clipPath><clipPath id="bb671cd14f"><path d="M 148.351562 152.101562 L 148.351562 218.398438 C 148.351562 221.710938 151.039062 224.398438 154.351562 224.398438 L 220.648438 224.398438 C 223.960938 224.398438 226.648438 221.710938 226.648438 218.398438 L 226.648438 152.101562 C 226.648438 148.789062 223.960938 146.101562 220.648438 146.101562 L 154.351562 146.101562 C 151.039062 146.101562 148.351562 148.789062 148.351562 152.101562 Z M 148.351562 152.101562 " clip-rule="nonzero"/></clipPath><clipPath id="a6d22e77b6"><path d="M 155.25 147 L 219.75 147 C 221.339844 147 222.867188 147.632812 223.992188 148.757812 C 225.117188 149.882812 225.75 151.410156 225.75 153 L 225.75 217.5 C 225.75 220.8125 223.0625 223.5 219.75 223.5 L 155.25 223.5 C 151.9375 223.5 149.25 220.8125 149.25 217.5 L 149.25 153 C 149.25 149.6875 151.9375 147 155.25 147 Z M 155.25 147 " clip-rule="nonzero"/></clipPath><clipPath id="344cf9f77d"><path d="M 200 199 L 212 199 L 212 202 L 200 202 Z M 200 199 " clip-rule="nonzero"/></clipPath><clipPath id="accf7f15c8"><path d="M 148.351562 152.101562 L 148.351562 218.398438 C 148.351562 221.710938 151.039062 224.398438 154.351562 224.398438 L 220.648438 224.398438 C 223.960938 224.398438 226.648438 221.710938 226.648438 218.398438 L 226.648438 152.101562 C 226.648438 148.789062 223.960938 146.101562 220.648438 146.101562 L 154.351562 146.101562 C 151.039062 146.101562 148.351562 148.789062 148.351562 152.101562 Z M 148.351562 152.101562 " clip-rule="nonzero"/></clipPath><clipPath id="53cfa980d4"><path d="M 155.25 147 L 219.75 147 C 221.339844 147 222.867188 147.632812 223.992188 148.757812 C 225.117188 149.882812 225.75 151.410156 225.75 153 L 225.75 217.5 C 225.75 220.8125 223.0625 223.5 219.75 223.5 L 155.25 223.5 C 151.9375 223.5 149.25 220.8125 149.25 217.5 L 149.25 153 C 149.25 149.6875 151.9375 147 155.25 147 Z M 155.25 147 " clip-rule="nonzero"/></clipPath><clipPath id="b023ecf55a"><path d="M 148.351562 146.101562 L 226.351562 146.101562 L 226.351562 224.101562 L 148.351562 224.101562 Z M 148.351562 146.101562 " clip-rule="nonzero"/></clipPath><clipPath id="d48615e5c4"><path d="M 148.351562 152.101562 L 148.351562 218.398438 C 148.351562 221.710938 151.039062 224.398438 154.351562 224.398438 L 220.648438 224.398438 C 223.960938 224.398438 226.648438 221.710938 226.648438 218.398438 L 226.648438 152.101562 C 226.648438 148.789062 223.960938 146.101562 220.648438 146.101562 L 154.351562 146.101562 C 151.039062 146.101562 148.351562 148.789062 148.351562 152.101562 Z M 148.351562 152.101562 " clip-rule="nonzero"/></clipPath><clipPath id="33b8638db9"><path d="M 148.351562 152.101562 L 148.351562 218.394531 C 148.351562 221.707031 151.039062 224.394531 154.351562 224.394531 L 220.644531 224.394531 C 223.957031 224.394531 226.644531 221.707031 226.644531 218.394531 L 226.644531 152.101562 C 226.644531 148.789062 223.957031 146.101562 220.644531 146.101562 L 154.351562 146.101562 C 151.039062 146.101562 148.351562 148.789062 148.351562 152.101562 Z M 148.351562 152.101562 " clip-rule="nonzero"/></clipPath></defs><g clip-path="url(#d36b0a9d2b)"><path fill="#ffffff" d="M 187.40625 265.792969 C 185.347656 265.792969 183.332031 265.5 181.355469 264.910156 C 179.382812 264.320312 177.535156 263.457031 175.816406 262.324219 L 147.71875 243.871094 C 145.679688 242.535156 143.730469 241.078125 141.871094 239.5 C 140.011719 237.921875 138.257812 236.238281 136.605469 234.441406 C 134.957031 232.644531 133.425781 230.753906 132.007812 228.769531 C 130.59375 226.78125 129.308594 224.714844 128.148438 222.570312 C 126.992188 220.425781 125.972656 218.214844 125.085938 215.941406 C 124.203125 213.667969 123.464844 211.351562 122.867188 208.984375 C 122.273438 206.621094 121.828125 204.230469 121.527344 201.808594 C 121.230469 199.386719 121.082031 196.960938 121.085938 194.519531 L 121.085938 136.039062 C 121.085938 135.808594 121.132812 135.585938 121.21875 135.371094 C 121.308594 135.15625 121.433594 134.96875 121.597656 134.804688 C 121.761719 134.640625 121.949219 134.515625 122.164062 134.425781 C 122.378906 134.339844 122.601562 134.292969 122.832031 134.292969 L 130.527344 134.292969 C 131.554688 134.292969 132.574219 134.191406 133.578125 133.992188 C 134.585938 133.789062 135.566406 133.492188 136.511719 133.097656 C 137.460938 132.703125 138.363281 132.222656 139.21875 131.652344 C 140.070312 131.082031 140.859375 130.433594 141.585938 129.707031 C 142.3125 128.980469 142.960938 128.1875 143.53125 127.335938 C 144.105469 126.480469 144.585938 125.582031 144.980469 124.632812 C 145.375 123.683594 145.671875 122.703125 145.871094 121.699219 C 146.074219 120.691406 146.175781 119.671875 146.175781 118.644531 L 146.175781 110.941406 C 146.175781 110.710938 146.21875 110.488281 146.308594 110.273438 C 146.398438 110.0625 146.523438 109.871094 146.6875 109.707031 C 146.851562 109.546875 147.039062 109.417969 147.25 109.332031 C 147.464844 109.242188 147.6875 109.199219 147.917969 109.199219 L 226.894531 109.199219 C 227.128906 109.199219 227.347656 109.242188 227.5625 109.332031 C 227.777344 109.417969 227.964844 109.546875 228.128906 109.707031 C 228.292969 109.871094 228.417969 110.0625 228.507812 110.273438 C 228.59375 110.488281 228.640625 110.710938 228.640625 110.941406 L 228.640625 118.640625 C 228.640625 119.667969 228.742188 120.683594 228.941406 121.691406 C 229.144531 122.699219 229.441406 123.675781 229.835938 124.625 C 230.230469 125.574219 230.710938 126.472656 231.28125 127.328125 C 231.851562 128.183594 232.5 128.972656 233.226562 129.699219 C 233.953125 130.425781 234.742188 131.074219 235.597656 131.644531 C 236.453125 132.214844 237.351562 132.699219 238.300781 133.089844 C 239.25 133.484375 240.226562 133.78125 241.234375 133.984375 C 242.242188 134.183594 243.257812 134.285156 244.285156 134.289062 L 251.984375 134.289062 C 252.214844 134.289062 252.4375 134.332031 252.652344 134.421875 C 252.863281 134.507812 253.054688 134.636719 253.21875 134.796875 C 253.378906 134.960938 253.507812 135.152344 253.59375 135.363281 C 253.683594 135.578125 253.726562 135.800781 253.726562 136.03125 L 253.726562 194.519531 C 253.730469 196.960938 253.585938 199.386719 253.285156 201.808594 C 252.988281 204.230469 252.542969 206.621094 251.945312 208.984375 C 251.351562 211.351562 250.613281 213.667969 249.726562 215.941406 C 248.84375 218.214844 247.824219 220.425781 246.664062 222.570312 C 245.507812 224.714844 244.21875 226.78125 242.804688 228.769531 C 241.390625 230.753906 239.859375 232.644531 238.207031 234.441406 C 236.558594 236.238281 234.804688 237.921875 232.945312 239.5 C 231.085938 241.078125 229.136719 242.535156 227.09375 243.871094 L 199 262.320312 C 197.277344 263.453125 195.429688 264.316406 193.457031 264.90625 C 191.484375 265.496094 189.46875 265.792969 187.40625 265.792969 Z M 124.574219 137.796875 L 124.574219 194.519531 C 124.570312 196.816406 124.710938 199.101562 124.988281 201.378906 C 125.269531 203.65625 125.691406 205.90625 126.25 208.132812 C 126.8125 210.355469 127.507812 212.539062 128.339844 214.675781 C 129.167969 216.816406 130.128906 218.894531 131.21875 220.914062 C 132.308594 222.933594 133.519531 224.875 134.851562 226.746094 C 136.183594 228.613281 137.625 230.394531 139.175781 232.082031 C 140.730469 233.773438 142.382812 235.359375 144.128906 236.84375 C 145.878906 238.328125 147.714844 239.699219 149.636719 240.953125 L 177.730469 259.402344 C 178.449219 259.863281 179.195312 260.269531 179.972656 260.625 C 180.746094 260.980469 181.546875 261.277344 182.363281 261.515625 C 183.183594 261.757812 184.015625 261.9375 184.859375 262.058594 C 185.703125 262.179688 186.554688 262.242188 187.40625 262.242188 C 188.261719 262.242188 189.109375 262.179688 189.953125 262.058594 C 190.800781 261.9375 191.632812 261.757812 192.449219 261.515625 C 193.269531 261.277344 194.066406 260.980469 194.84375 260.625 C 195.621094 260.269531 196.367188 259.863281 197.085938 259.402344 L 225.179688 240.953125 C 227.101562 239.695312 228.933594 238.324219 230.683594 236.84375 C 232.433594 235.359375 234.085938 233.769531 235.636719 232.082031 C 237.191406 230.390625 238.632812 228.613281 239.964844 226.742188 C 241.292969 224.875 242.503906 222.929688 243.59375 220.914062 C 244.683594 218.894531 245.644531 216.816406 246.476562 214.675781 C 247.308594 212.539062 248.003906 210.355469 248.5625 208.132812 C 249.125 205.90625 249.542969 203.65625 249.824219 201.378906 C 250.105469 199.101562 250.242188 196.816406 250.238281 194.519531 L 250.238281 137.78125 L 244.285156 137.78125 C 243.660156 137.78125 243.035156 137.75 242.410156 137.6875 C 241.789062 137.625 241.167969 137.535156 240.554688 137.410156 C 239.941406 137.289062 239.332031 137.136719 238.734375 136.953125 C 238.136719 136.769531 237.546875 136.558594 236.96875 136.320312 C 236.390625 136.078125 235.824219 135.8125 235.269531 135.515625 C 234.71875 135.21875 234.183594 134.898438 233.660156 134.550781 C 233.140625 134.203125 232.636719 133.828125 232.152344 133.433594 C 231.667969 133.035156 231.207031 132.613281 230.761719 132.171875 C 230.320312 131.726562 229.898438 131.265625 229.5 130.78125 C 229.105469 130.296875 228.730469 129.792969 228.382812 129.273438 C 228.035156 128.75 227.714844 128.214844 227.417969 127.664062 C 227.121094 127.109375 226.855469 126.542969 226.613281 125.964844 C 226.375 125.386719 226.164062 124.796875 225.980469 124.199219 C 225.796875 123.597656 225.644531 122.992188 225.523438 122.378906 C 225.402344 121.761719 225.308594 121.144531 225.246094 120.519531 C 225.183594 119.898438 225.152344 119.273438 225.152344 118.644531 L 225.152344 112.6875 L 149.664062 112.6875 L 149.664062 118.640625 C 149.664062 119.265625 149.632812 119.890625 149.570312 120.515625 C 149.507812 121.136719 149.414062 121.757812 149.292969 122.371094 C 149.171875 122.984375 149.019531 123.59375 148.835938 124.191406 C 148.652344 124.792969 148.441406 125.382812 148.203125 125.960938 C 147.964844 126.539062 147.695312 127.105469 147.398438 127.65625 C 147.105469 128.210938 146.78125 128.746094 146.433594 129.269531 C 146.085938 129.789062 145.714844 130.292969 145.316406 130.777344 C 144.917969 131.261719 144.5 131.726562 144.054688 132.167969 C 143.613281 132.613281 143.148438 133.03125 142.664062 133.429688 C 142.179688 133.828125 141.675781 134.199219 141.15625 134.550781 C 140.636719 134.898438 140.097656 135.21875 139.546875 135.515625 C 138.992188 135.8125 138.429688 136.078125 137.847656 136.320312 C 137.269531 136.558594 136.679688 136.769531 136.082031 136.953125 C 135.480469 137.136719 134.875 137.289062 134.261719 137.410156 C 133.644531 137.535156 133.027344 137.625 132.402344 137.6875 C 131.78125 137.75 131.15625 137.78125 130.527344 137.78125 Z M 187.40625 258.085938 C 184.730469 258.089844 182.277344 257.355469 180.039062 255.886719 L 151.945312 237.433594 C 150.167969 236.273438 148.472656 235.007812 146.855469 233.636719 C 145.238281 232.265625 143.714844 230.796875 142.28125 229.234375 C 140.84375 227.675781 139.511719 226.03125 138.28125 224.300781 C 137.050781 222.574219 135.933594 220.777344 134.925781 218.914062 C 133.917969 217.046875 133.03125 215.125 132.261719 213.148438 C 131.496094 211.171875 130.851562 209.15625 130.335938 207.097656 C 129.816406 205.042969 129.429688 202.960938 129.167969 200.859375 C 128.910156 198.753906 128.78125 196.640625 128.785156 194.519531 L 128.785156 143.734375 C 128.785156 143.503906 128.828125 143.28125 128.917969 143.070312 C 129.003906 142.855469 129.132812 142.667969 129.296875 142.503906 C 129.457031 142.339844 129.648438 142.214844 129.859375 142.125 C 130.074219 142.035156 130.296875 141.992188 130.527344 141.992188 C 131.292969 141.992188 132.054688 141.953125 132.816406 141.878906 C 133.578125 141.800781 134.332031 141.691406 135.082031 141.539062 C 135.832031 141.390625 136.570312 141.203125 137.300781 140.980469 C 138.035156 140.761719 138.753906 140.503906 139.457031 140.210938 C 140.164062 139.917969 140.855469 139.589844 141.527344 139.230469 C 142.203125 138.867188 142.859375 138.476562 143.492188 138.050781 C 144.128906 137.625 144.742188 137.171875 145.332031 136.6875 C 145.921875 136.203125 146.488281 135.6875 147.03125 135.148438 C 147.570312 134.609375 148.082031 134.042969 148.566406 133.453125 C 149.054688 132.859375 149.507812 132.246094 149.933594 131.613281 C 150.359375 130.976562 150.75 130.320312 151.109375 129.648438 C 151.472656 128.972656 151.796875 128.285156 152.089844 127.578125 C 152.382812 126.871094 152.640625 126.152344 152.863281 125.421875 C 153.085938 124.691406 153.273438 123.949219 153.421875 123.199219 C 153.570312 122.449219 153.683594 121.695312 153.761719 120.933594 C 153.835938 120.175781 153.875 119.414062 153.875 118.648438 C 153.875 118.417969 153.917969 118.195312 154.007812 117.980469 C 154.09375 117.765625 154.222656 117.578125 154.386719 117.414062 C 154.546875 117.25 154.738281 117.125 154.949219 117.035156 C 155.164062 116.949219 155.386719 116.902344 155.617188 116.902344 L 219.195312 116.902344 C 219.429688 116.902344 219.652344 116.949219 219.863281 117.035156 C 220.078125 117.125 220.265625 117.25 220.429688 117.414062 C 220.59375 117.578125 220.71875 117.765625 220.808594 117.980469 C 220.898438 118.195312 220.941406 118.417969 220.941406 118.648438 C 220.941406 119.414062 220.980469 120.175781 221.054688 120.933594 C 221.132812 121.695312 221.242188 122.449219 221.394531 123.199219 C 221.542969 123.949219 221.730469 124.691406 221.953125 125.421875 C 222.171875 126.152344 222.429688 126.871094 222.722656 127.578125 C 223.015625 128.285156 223.34375 128.972656 223.703125 129.648438 C 224.066406 130.320312 224.457031 130.976562 224.882812 131.613281 C 225.308594 132.246094 225.761719 132.859375 226.246094 133.453125 C 226.730469 134.042969 227.246094 134.609375 227.785156 135.148438 C 228.324219 135.6875 228.890625 136.203125 229.484375 136.6875 C 230.074219 137.171875 230.6875 137.625 231.320312 138.050781 C 231.957031 138.476562 232.613281 138.867188 233.285156 139.230469 C 233.960938 139.589844 234.648438 139.917969 235.355469 140.210938 C 236.0625 140.503906 236.78125 140.761719 237.511719 140.980469 C 238.242188 141.203125 238.984375 141.390625 239.734375 141.539062 C 240.484375 141.691406 241.238281 141.800781 242 141.878906 C 242.761719 141.953125 243.523438 141.992188 244.285156 141.992188 C 244.519531 141.992188 244.742188 142.035156 244.953125 142.125 C 245.167969 142.214844 245.355469 142.339844 245.519531 142.503906 C 245.683594 142.667969 245.808594 142.855469 245.898438 143.070312 C 245.988281 143.28125 246.03125 143.503906 246.03125 143.734375 L 246.03125 194.519531 C 246.035156 196.640625 245.90625 198.753906 245.648438 200.859375 C 245.386719 202.960938 245 205.042969 244.480469 207.097656 C 243.964844 209.15625 243.320312 211.171875 242.550781 213.148438 C 241.785156 215.125 240.894531 217.046875 239.890625 218.914062 C 238.882812 220.777344 237.761719 222.574219 236.53125 224.300781 C 235.300781 226.03125 233.96875 227.675781 232.535156 229.234375 C 231.101562 230.796875 229.574219 232.265625 227.957031 233.636719 C 226.339844 235.007812 224.644531 236.273438 222.871094 237.433594 L 194.773438 255.886719 C 192.539062 257.351562 190.082031 258.085938 187.40625 258.085938 Z M 132.273438 145.421875 L 132.273438 194.519531 C 132.269531 196.496094 132.386719 198.464844 132.628906 200.425781 C 132.871094 202.390625 133.234375 204.328125 133.714844 206.246094 C 134.199219 208.160156 134.796875 210.042969 135.515625 211.882812 C 136.230469 213.726562 137.058594 215.515625 137.996094 217.253906 C 138.933594 218.996094 139.976562 220.667969 141.125 222.277344 C 142.273438 223.890625 143.511719 225.421875 144.851562 226.878906 C 146.1875 228.332031 147.609375 229.699219 149.117188 230.976562 C 150.625 232.257812 152.203125 233.4375 153.859375 234.519531 L 181.953125 252.96875 C 182.765625 253.5 183.632812 253.90625 184.5625 254.183594 C 185.492188 254.460938 186.4375 254.597656 187.40625 254.597656 C 188.375 254.597656 189.324219 254.460938 190.253906 254.183594 C 191.179688 253.90625 192.050781 253.5 192.859375 252.96875 L 220.957031 234.519531 C 222.609375 233.4375 224.191406 232.257812 225.699219 230.976562 C 227.203125 229.699219 228.628906 228.332031 229.964844 226.878906 C 231.300781 225.421875 232.542969 223.890625 233.691406 222.277344 C 234.835938 220.667969 235.878906 218.996094 236.820312 217.253906 C 237.757812 215.515625 238.585938 213.726562 239.300781 211.882812 C 240.015625 210.042969 240.617188 208.160156 241.097656 206.246094 C 241.582031 204.328125 241.945312 202.390625 242.183594 200.425781 C 242.425781 198.464844 242.546875 196.496094 242.542969 194.519531 L 242.542969 145.421875 C 241.738281 145.371094 240.9375 145.28125 240.144531 145.15625 C 239.347656 145.03125 238.558594 144.871094 237.777344 144.671875 C 236.996094 144.476562 236.226562 144.246094 235.464844 143.980469 C 234.703125 143.714844 233.957031 143.414062 233.222656 143.082031 C 232.488281 142.75 231.773438 142.382812 231.070312 141.988281 C 230.371094 141.589844 229.6875 141.160156 229.027344 140.703125 C 228.363281 140.242188 227.722656 139.757812 227.105469 139.242188 C 226.488281 138.722656 225.894531 138.179688 225.324219 137.613281 C 224.753906 137.042969 224.210938 136.449219 223.695312 135.828125 C 223.179688 135.210938 222.691406 134.570312 222.230469 133.90625 C 221.773438 133.246094 221.34375 132.5625 220.949219 131.863281 C 220.550781 131.164062 220.183594 130.445312 219.851562 129.710938 C 219.519531 128.976562 219.21875 128.230469 218.953125 127.46875 C 218.6875 126.710938 218.457031 125.9375 218.261719 125.15625 C 218.066406 124.375 217.90625 123.585938 217.777344 122.792969 C 217.652344 121.996094 217.5625 121.195312 217.511719 120.390625 L 157.304688 120.390625 C 157.25 121.195312 157.160156 121.996094 157.035156 122.792969 C 156.910156 123.585938 156.75 124.375 156.554688 125.15625 C 156.355469 125.9375 156.125 126.710938 155.859375 127.46875 C 155.59375 128.230469 155.296875 128.976562 154.960938 129.710938 C 154.628906 130.445312 154.265625 131.164062 153.867188 131.863281 C 153.46875 132.5625 153.042969 133.246094 152.582031 133.90625 C 152.125 134.570312 151.636719 135.210938 151.121094 135.828125 C 150.605469 136.449219 150.0625 137.042969 149.492188 137.613281 C 148.921875 138.179688 148.328125 138.722656 147.710938 139.242188 C 147.089844 139.757812 146.449219 140.242188 145.789062 140.703125 C 145.125 141.160156 144.445312 141.589844 143.742188 141.988281 C 143.042969 142.382812 142.324219 142.75 141.59375 143.082031 C 140.859375 143.414062 140.109375 143.714844 139.351562 143.980469 C 138.589844 144.246094 137.820312 144.476562 137.039062 144.671875 C 136.257812 144.871094 135.46875 145.03125 134.671875 145.15625 C 133.875 145.28125 133.074219 145.371094 132.273438 145.421875 Z M 221.914062 235.972656 Z M 221.914062 235.972656 " fill-opacity="1" fill-rule="nonzero"/></g><g clip-path="url(#7e9719a7e7)"><g clip-path="url(#6e179f4f7b)"><g clip-path="url(#ca174ce367)"><path fill="#ffbe00" d="M 149.222656 146.972656 L 187.5 146.972656 L 187.5 185.25 L 149.222656 185.25 Z M 149.222656 146.972656 " fill-opacity="1" fill-rule="nonzero"/></g></g></g><g clip-path="url(#fdf6e80fc5)"><g clip-path="url(#26128075ce)"><g clip-path="url(#133c5a46c8)"><path fill="#7bd8f7" d="M 187.5 146.972656 L 225.777344 146.972656 L 225.777344 185.25 L 187.5 185.25 Z M 187.5 146.972656 " fill-opacity="1" fill-rule="nonzero"/></g></g></g><g clip-path="url(#0c3ceb4660)"><g clip-path="url(#eff3ca97a0)"><g clip-path="url(#3ad0967f6a)"><path fill="#81bcda" d="M 149.222656 185.25 L 187.5 185.25 L 187.5 223.527344 L 149.222656 223.527344 Z M 149.222656 185.25 " fill-opacity="1" fill-rule="nonzero"/></g></g></g><g clip-path="url(#c741cc7d0d)"><g clip-path="url(#52bc603f6d)"><g clip-path="url(#8b1cc8004e)"><path fill="#4390b3" d="M 187.5 185.25 L 225.777344 185.25 L 225.777344 223.527344 L 187.5 223.527344 Z M 187.5 185.25 " fill-opacity="1" fill-rule="nonzero"/></g></g></g><g clip-path="url(#501e4781d8)"><g clip-path="url(#bf13aeb183)"><g clip-path="url(#2de8659abe)"><path fill="#ffffff" d="M 188.371094 146.101562 L 148.351562 146.101562 L 148.351562 224.394531 L 226.644531 224.394531 L 226.644531 146.101562 Z M 150.09375 147.84375 L 186.628906 147.84375 L 186.628906 184.378906 L 150.09375 184.378906 Z M 186.628906 222.65625 L 150.09375 222.65625 L 150.09375 186.121094 L 186.628906 186.121094 Z M 224.90625 222.65625 L 188.371094 222.65625 L 188.371094 186.121094 L 224.90625 186.121094 Z M 188.371094 184.378906 L 188.371094 147.84375 L 224.90625 147.84375 L 224.90625 184.378906 Z M 188.371094 184.378906 " fill-opacity="1" fill-rule="nonzero"/></g></g></g><g clip-path="url(#61c22b4e7e)"><g clip-path="url(#1826eac3eb)"><g clip-path="url(#ef281e94a7)"><path fill="#ffffff" d="M 168.363281 173.355469 C 164.285156 173.355469 160.96875 170.035156 160.96875 165.960938 C 160.96875 161.882812 164.285156 158.566406 168.363281 158.566406 C 172.4375 158.566406 175.753906 161.882812 175.753906 165.960938 C 175.753906 170.035156 172.4375 173.355469 168.363281 173.355469 Z M 168.363281 160.304688 C 165.242188 160.304688 162.707031 162.839844 162.707031 165.960938 C 162.707031 169.078125 165.242188 171.613281 168.363281 171.613281 C 171.480469 171.613281 174.015625 169.078125 174.015625 165.960938 C 174.015625 162.839844 171.480469 160.304688 168.363281 160.304688 Z M 168.363281 160.304688 " fill-opacity="1" fill-rule="nonzero"/></g></g></g><g clip-path="url(#cbd19c88ed)"><g clip-path="url(#30dc4f02c8)"><g clip-path="url(#faee965864)"><path fill="#ffffff" d="M 168.363281 156.464844 C 167.882812 156.464844 167.492188 156.074219 167.492188 155.59375 L 167.492188 152.910156 C 167.492188 152.429688 167.882812 152.039062 168.363281 152.039062 C 168.839844 152.039062 169.230469 152.429688 169.230469 152.910156 L 169.230469 155.59375 C 169.230469 156.074219 168.839844 156.464844 168.363281 156.464844 Z M 168.363281 156.464844 " fill-opacity="1" fill-rule="nonzero"/></g></g></g><g clip-path="url(#e7bd808e2c)"><g clip-path="url(#796574a390)"><g clip-path="url(#b62d324b46)"><path fill="#ffffff" d="M 168.363281 179.878906 C 167.882812 179.878906 167.492188 179.488281 167.492188 179.007812 L 167.492188 176.324219 C 167.492188 175.84375 167.882812 175.453125 168.363281 175.453125 C 168.839844 175.453125 169.230469 175.84375 169.230469 176.324219 L 169.230469 179.007812 C 169.230469 179.488281 168.839844 179.878906 168.363281 179.878906 Z M 168.363281 179.878906 " fill-opacity="1" fill-rule="nonzero"/></g></g></g><g clip-path="url(#623e75183b)"><g clip-path="url(#a6ca64d4f2)"><g clip-path="url(#4ab1ac16cd)"><path fill="#ffffff" d="M 157.996094 166.828125 L 155.3125 166.828125 C 154.832031 166.828125 154.441406 166.4375 154.441406 165.960938 C 154.441406 165.480469 154.832031 165.089844 155.3125 165.089844 L 157.996094 165.089844 C 158.476562 165.089844 158.867188 165.480469 158.867188 165.960938 C 158.867188 166.4375 158.476562 166.828125 157.996094 166.828125 Z M 157.996094 166.828125 " fill-opacity="1" fill-rule="nonzero"/></g></g></g><g clip-path="url(#154e028baf)"><g clip-path="url(#ef032a6d32)"><g clip-path="url(#d3839d757a)"><path fill="#ffffff" d="M 181.410156 166.828125 L 178.726562 166.828125 C 178.246094 166.828125 177.855469 166.4375 177.855469 165.960938 C 177.855469 165.480469 178.246094 165.089844 178.726562 165.089844 L 181.410156 165.089844 C 181.890625 165.089844 182.28125 165.480469 182.28125 165.960938 C 182.28125 166.4375 181.890625 166.828125 181.410156 166.828125 Z M 181.410156 166.828125 " fill-opacity="1" fill-rule="nonzero"/></g></g></g><g clip-path="url(#6e5e17bf99)"><g clip-path="url(#4c68c07bd5)"><g clip-path="url(#04331127be)"><path fill="#ffffff" d="M 175.691406 159.5 C 175.46875 159.5 175.246094 159.414062 175.074219 159.246094 C 174.734375 158.90625 174.734375 158.355469 175.074219 158.015625 L 176.972656 156.117188 C 177.3125 155.777344 177.863281 155.777344 178.203125 156.117188 C 178.542969 156.457031 178.542969 157.007812 178.203125 157.347656 L 176.304688 159.246094 C 176.136719 159.414062 175.914062 159.5 175.691406 159.5 Z M 175.691406 159.5 " fill-opacity="1" fill-rule="nonzero"/></g></g></g><g clip-path="url(#5894b5884e)"><g clip-path="url(#d99188706a)"><g clip-path="url(#e734f1aab1)"><path fill="#ffffff" d="M 159.136719 176.054688 C 158.914062 176.054688 158.691406 175.96875 158.519531 175.800781 C 158.179688 175.460938 158.179688 174.910156 158.519531 174.570312 L 160.417969 172.671875 C 160.757812 172.332031 161.308594 172.332031 161.648438 172.671875 C 161.988281 173.011719 161.988281 173.5625 161.648438 173.902344 L 159.75 175.800781 C 159.578125 175.96875 159.355469 176.054688 159.136719 176.054688 Z M 159.136719 176.054688 " fill-opacity="1" fill-rule="nonzero"/></g></g></g><g clip-path="url(#fb61feecfe)"><g clip-path="url(#da7de78eb6)"><g clip-path="url(#a8d4d805a2)"><path fill="#ffffff" d="M 161.035156 159.5 C 160.808594 159.5 160.585938 159.414062 160.417969 159.246094 L 158.519531 157.347656 C 158.179688 157.007812 158.179688 156.457031 158.519531 156.117188 C 158.859375 155.777344 159.410156 155.777344 159.75 156.117188 L 161.648438 158.015625 C 161.988281 158.355469 161.988281 158.90625 161.648438 159.246094 C 161.476562 159.414062 161.257812 159.5 161.035156 159.5 Z M 161.035156 159.5 " fill-opacity="1" fill-rule="nonzero"/></g></g></g><g clip-path="url(#647d0f3e53)"><g clip-path="url(#5bcf96282e)"><g clip-path="url(#58b7bbaad4)"><path fill="#ffffff" d="M 177.585938 176.054688 C 177.363281 176.054688 177.140625 175.96875 176.972656 175.800781 L 175.074219 173.902344 C 174.734375 173.5625 174.734375 173.011719 175.074219 172.671875 C 175.414062 172.332031 175.964844 172.332031 176.304688 172.671875 L 178.203125 174.570312 C 178.542969 174.910156 178.542969 175.460938 178.203125 175.800781 C 178.035156 175.96875 177.808594 176.054688 177.585938 176.054688 Z M 177.585938 176.054688 " fill-opacity="1" fill-rule="nonzero"/></g></g></g><g clip-path="url(#b54eab0ced)"><g clip-path="url(#ebd1afb303)"><g clip-path="url(#6375190c01)"><path fill="#ffffff" d="M 206.636719 177.703125 C 202.960938 177.703125 199.96875 174.347656 199.96875 170.226562 C 199.96875 166.789062 201.585938 164.171875 203.152344 161.636719 C 204.496094 159.464844 205.769531 157.410156 205.769531 155.085938 C 205.769531 154.605469 206.15625 154.214844 206.636719 154.214844 C 207.117188 154.214844 207.507812 154.605469 207.507812 155.085938 C 207.507812 157.410156 208.777344 159.464844 210.121094 161.636719 C 211.6875 164.171875 213.308594 166.789062 213.308594 170.226562 C 213.308594 174.347656 210.316406 177.703125 206.636719 177.703125 Z M 206.636719 158.933594 C 206.089844 160.195312 205.355469 161.382812 204.632812 162.554688 C 203.195312 164.878906 201.707031 167.285156 201.707031 170.226562 C 201.707031 173.390625 203.917969 175.964844 206.636719 175.964844 C 209.355469 175.964844 211.566406 173.390625 211.566406 170.226562 C 211.566406 167.285156 210.082031 164.878906 208.640625 162.554688 C 207.917969 161.382812 207.183594 160.195312 206.636719 158.933594 Z M 206.636719 158.933594 " fill-opacity="1" fill-rule="nonzero"/></g></g></g><g clip-path="url(#03bda87ed9)"><g clip-path="url(#ddb9ab2243)"><g clip-path="url(#dda235b842)"><path fill="#ffffff" d="M 179.234375 202.503906 L 178.355469 202.503906 L 178.566406 202.28125 C 178.894531 201.933594 178.878906 201.382812 178.53125 201.050781 C 178.179688 200.722656 177.632812 200.738281 177.300781 201.085938 L 175.960938 202.503906 L 173.210938 202.503906 L 171.539062 199.609375 L 172.914062 197.230469 L 174.8125 196.777344 C 175.277344 196.664062 175.566406 196.195312 175.457031 195.730469 C 175.34375 195.261719 174.878906 194.972656 174.410156 195.085938 L 174.109375 195.15625 L 174.550781 194.394531 C 174.789062 193.976562 174.648438 193.445312 174.230469 193.203125 C 173.8125 192.964844 173.285156 193.109375 173.042969 193.523438 L 172.601562 194.285156 L 172.515625 193.992188 C 172.378906 193.53125 171.890625 193.269531 171.433594 193.40625 C 170.972656 193.542969 170.710938 194.027344 170.847656 194.488281 L 171.40625 196.359375 L 170.03125 198.738281 L 166.6875 198.738281 L 165.3125 196.359375 L 165.871094 194.488281 C 166.007812 194.027344 165.746094 193.542969 165.285156 193.40625 C 164.824219 193.269531 164.339844 193.53125 164.203125 193.992188 L 164.117188 194.285156 L 163.675781 193.523438 C 163.4375 193.105469 162.902344 192.964844 162.488281 193.203125 C 162.070312 193.445312 161.929688 193.976562 162.171875 194.394531 L 162.609375 195.15625 L 162.3125 195.085938 C 161.847656 194.972656 161.375 195.261719 161.265625 195.730469 C 161.152344 196.195312 161.441406 196.664062 161.910156 196.777344 L 163.808594 197.230469 L 165.179688 199.609375 L 163.507812 202.503906 L 160.761719 202.503906 L 159.417969 201.085938 C 159.089844 200.738281 158.539062 200.722656 158.1875 201.050781 C 157.839844 201.382812 157.824219 201.933594 158.15625 202.28125 L 158.363281 202.503906 L 157.488281 202.503906 C 157.007812 202.503906 156.617188 202.894531 156.617188 203.375 C 156.617188 203.855469 157.007812 204.246094 157.488281 204.246094 L 158.367188 204.246094 L 158.15625 204.46875 C 157.828125 204.816406 157.839844 205.367188 158.191406 205.695312 C 158.359375 205.855469 158.574219 205.933594 158.789062 205.933594 C 159.019531 205.933594 159.25 205.84375 159.421875 205.664062 L 160.761719 204.242188 L 163.511719 204.242188 L 165.183594 207.140625 L 163.808594 209.519531 L 161.910156 209.972656 C 161.445312 210.085938 161.15625 210.554688 161.265625 211.019531 C 161.359375 211.421875 161.71875 211.6875 162.113281 211.6875 C 162.179688 211.6875 162.246094 211.679688 162.316406 211.664062 L 162.613281 211.59375 L 162.171875 212.355469 C 161.933594 212.773438 162.074219 213.304688 162.492188 213.542969 C 162.628906 213.625 162.777344 213.660156 162.925781 213.660156 C 163.226562 213.660156 163.519531 213.503906 163.679688 213.226562 L 164.117188 212.464844 L 164.207031 212.757812 C 164.320312 213.136719 164.664062 213.378906 165.039062 213.378906 C 165.121094 213.378906 165.207031 213.367188 165.289062 213.34375 C 165.75 213.207031 166.011719 212.722656 165.875 212.261719 L 165.316406 210.390625 L 166.6875 208.011719 L 170.035156 208.011719 L 171.40625 210.390625 L 170.847656 212.261719 C 170.710938 212.722656 170.976562 213.207031 171.433594 213.34375 C 171.515625 213.367188 171.601562 213.378906 171.683594 213.378906 C 172.058594 213.378906 172.40625 213.136719 172.515625 212.757812 L 172.605469 212.464844 L 173.042969 213.226562 C 173.207031 213.503906 173.496094 213.660156 173.796875 213.660156 C 173.945312 213.660156 174.097656 213.625 174.234375 213.542969 C 174.648438 213.304688 174.792969 212.769531 174.550781 212.355469 L 174.113281 211.59375 L 174.410156 211.664062 C 174.476562 211.679688 174.542969 211.6875 174.613281 211.6875 C 175.003906 211.6875 175.363281 211.417969 175.457031 211.019531 C 175.570312 210.550781 175.28125 210.082031 174.8125 209.972656 L 172.914062 209.519531 L 171.542969 207.140625 L 173.214844 204.242188 L 175.960938 204.242188 L 177.300781 205.660156 C 177.472656 205.84375 177.703125 205.933594 177.933594 205.933594 C 178.148438 205.933594 178.363281 205.855469 178.53125 205.695312 C 178.882812 205.367188 178.898438 204.816406 178.566406 204.464844 L 178.355469 204.242188 L 179.234375 204.242188 C 179.714844 204.242188 180.105469 203.855469 180.105469 203.375 C 180.105469 202.894531 179.714844 202.503906 179.234375 202.503906 Z M 170.035156 206.269531 L 166.6875 206.269531 L 165.015625 203.375 L 166.6875 200.476562 L 170.035156 200.476562 L 171.707031 203.375 Z M 170.035156 206.269531 " fill-opacity="1" fill-rule="nonzero"/></g></g></g><g clip-path="url(#27d991d3af)"><g clip-path="url(#5f4a00d560)"><g clip-path="url(#84a111f90e)"><path fill="#ffffff" d="M 209.851562 215.910156 C 209.371094 215.910156 208.980469 215.519531 208.980469 215.039062 C 208.980469 214.558594 209.371094 214.167969 209.851562 214.167969 C 211.355469 214.167969 212.582031 212.941406 212.582031 211.4375 C 212.582031 209.929688 211.355469 208.703125 209.851562 208.703125 L 199.242188 208.703125 C 198.761719 208.703125 198.375 208.316406 198.375 207.832031 C 198.375 207.351562 198.761719 206.964844 199.242188 206.964844 L 209.851562 206.964844 C 212.316406 206.964844 214.320312 208.96875 214.320312 211.4375 C 214.320312 213.902344 212.316406 215.910156 209.851562 215.910156 Z M 209.851562 215.910156 " fill-opacity="1" fill-rule="nonzero"/></g></g></g><g clip-path="url(#1bc39fd290)"><g clip-path="url(#bb671cd14f)"><g clip-path="url(#a6d22e77b6)"><path fill="#ffffff" d="M 213.910156 205.136719 L 195.765625 205.136719 C 195.28125 205.136719 194.894531 204.746094 194.894531 204.265625 C 194.894531 203.785156 195.28125 203.394531 195.765625 203.394531 L 213.910156 203.394531 C 215.414062 203.394531 216.640625 202.167969 216.640625 200.664062 C 216.640625 199.15625 215.417969 197.929688 213.910156 197.929688 C 213.429688 197.929688 213.039062 197.542969 213.039062 197.0625 C 213.039062 196.578125 213.429688 196.191406 213.910156 196.191406 C 216.375 196.191406 218.382812 198.195312 218.382812 200.664062 C 218.382812 203.128906 216.375 205.136719 213.910156 205.136719 Z M 213.910156 205.136719 " fill-opacity="1" fill-rule="nonzero"/></g></g></g><g clip-path="url(#344cf9f77d)"><g clip-path="url(#accf7f15c8)"><g clip-path="url(#53cfa980d4)"><path fill="#ffffff" d="M 210.480469 201.640625 L 200.953125 201.640625 C 200.472656 201.640625 200.085938 201.25 200.085938 200.769531 C 200.085938 200.289062 200.472656 199.898438 200.953125 199.898438 L 210.480469 199.898438 C 210.960938 199.898438 211.351562 200.289062 211.351562 200.769531 C 211.351562 201.25 210.960938 201.640625 210.480469 201.640625 Z M 210.480469 201.640625 " fill-opacity="1" fill-rule="nonzero"/></g></g></g><g clip-path="url(#b023ecf55a)"><g clip-path="url(#d48615e5c4)"><g clip-path="url(#33b8638db9)"><path stroke-linecap="butt" transform="matrix(0.75, 0, 0, 0.75, 148.35108, 146.101075)" fill="none" stroke-linejoin="miter" d="M 0.000643922 8.00065 L 0.000643922 96.391281 C 0.000643922 100.807948 3.583977 104.391282 8.000644 104.391282 L 96.391275 104.391282 C 100.807942 104.391282 104.391276 100.807948 104.391276 96.391281 L 104.391276 8.00065 C 104.391276 3.583983 100.807942 0.000649725 96.391275 0.000649725 L 8.000644 0.000649725 C 3.583977 0.000649725 0.000643922 3.583983 0.000643922 8.00065 Z M 0.000643922 8.00065 " stroke="#ffffff" stroke-width="8" stroke-opacity="1" stroke-miterlimit="4"/></g></g></g></svg>